<svg id="Layer_1" data-name="Layer 1" xmlns="http://www.w3.org/2000/svg" viewBox="0 0 2318 564">
  <defs>
    <style>
      .cls-1 {
        fill: #727086;
      }

      .cls-1, .cls-2, .cls-3, .cls-4, .cls-5, .cls-6, .cls-7, .cls-8, .cls-9, .cls-10, .cls-11, .cls-12, .cls-13, .cls-14, .cls-15, .cls-16, .cls-17, .cls-18, .cls-19, .cls-20, .cls-21, .cls-22, .cls-23, .cls-24, .cls-25, .cls-26, .cls-27, .cls-28, .cls-29, .cls-30, .cls-31, .cls-32, .cls-33, .cls-34, .cls-35, .cls-36, .cls-37, .cls-38, .cls-39, .cls-40, .cls-41, .cls-42, .cls-43, .cls-44, .cls-45, .cls-46, .cls-47, .cls-48, .cls-49, .cls-50, .cls-51, .cls-52, .cls-53, .cls-54, .cls-55, .cls-56, .cls-57, .cls-58, .cls-59, .cls-60, .cls-61, .cls-62, .cls-63, .cls-64, .cls-65, .cls-66, .cls-67, .cls-68, .cls-69, .cls-70, .cls-71, .cls-72, .cls-73, .cls-74, .cls-75, .cls-76, .cls-77, .cls-78, .cls-79, .cls-80, .cls-81, .cls-82, .cls-83, .cls-84, .cls-85, .cls-86, .cls-87, .cls-88, .cls-89, .cls-90, .cls-91, .cls-92, .cls-93, .cls-94, .cls-95, .cls-96, .cls-97, .cls-98, .cls-99, .cls-100, .cls-101, .cls-102 {
        stroke-width: 0px;
      }

      .cls-2 {
        fill: #c7c7c8;
      }

      .cls-3 {
        fill: #b8b8b9;
      }

      .cls-4 {
        fill: #cdcdcd;
      }

      .cls-5 {
        fill: #767393;
      }

      .cls-6 {
        fill: #b3b3b5;
      }

      .cls-7 {
        fill: #2d2a6b;
      }

      .cls-8 {
        fill: #e8e7e8;
      }

      .cls-9 {
        fill: #2e2b63;
      }

      .cls-10 {
        fill: #f3f3f3;
      }

      .cls-11 {
        fill: #c8c8c8;
      }

      .cls-12 {
        fill: #85859f;
      }

      .cls-13 {
        fill: #716d93;
      }

      .cls-14 {
        fill: #716f8e;
      }

      .cls-15 {
        fill: #666282;
      }

      .cls-16 {
        fill: #696a94;
      }

      .cls-17 {
        fill: #bababa;
      }

      .cls-18 {
        fill: #6c6a7f;
      }

      .cls-19 {
        fill: #e5e4ec;
      }

      .cls-20 {
        fill: #252156;
      }

      .cls-21 {
        fill: #373468;
      }

      .cls-22 {
        fill: #c4c4c4;
      }

      .cls-23 {
        fill: #bbb;
      }

      .cls-24 {
        fill: #deddde;
      }

      .cls-25 {
        fill: #6c6c95;
      }

      .cls-26 {
        fill: #5a5678;
      }

      .cls-27 {
        fill: #b8b8b8;
      }

      .cls-28 {
        fill: #6a6a94;
      }

      .cls-29 {
        fill: #6a698a;
      }

      .cls-30 {
        fill: #cccbcd;
      }

      .cls-31 {
        fill: #ddd;
      }

      .cls-32 {
        fill: #aeaeaf;
      }

      .cls-33 {
        fill: #b9b9b9;
      }

      .cls-34 {
        fill: #bfbfbf;
      }

      .cls-35 {
        fill: #d2d2d2;
      }

      .cls-36 {
        fill: #e7e7e7;
      }

      .cls-37 {
        fill: #605e86;
      }

      .cls-38 {
        fill: #ccc;
      }

      .cls-39 {
        fill: #9391b0;
      }

      .cls-40 {
        fill: #858589;
      }

      .cls-41 {
        fill: #696994;
      }

      .cls-42 {
        fill: #77768c;
      }

      .cls-43 {
        fill: #201d56;
      }

      .cls-44 {
        fill: #7b799c;
      }

      .cls-45 {
        fill: #b6b5b9;
      }

      .cls-46 {
        fill: #e1e1e2;
      }

      .cls-47 {
        fill: #c9c8cb;
      }

      .cls-48 {
        fill: #a9a7c0;
      }

      .cls-49 {
        fill: #d5d5d5;
      }

      .cls-50 {
        fill: #ededf0;
      }

      .cls-51 {
        fill: #2d2a6c;
      }

      .cls-52 {
        fill: #a09eb7;
      }

      .cls-53 {
        fill: #bcbcbd;
      }

      .cls-54 {
        fill: #2d296b;
      }

      .cls-55 {
        fill: #909092;
      }

      .cls-56 {
        fill: #8f8da6;
      }

      .cls-57 {
        fill: #d2d2d3;
      }

      .cls-58 {
        fill: #c2c2c3;
      }

      .cls-59 {
        fill: #bcbcbc;
      }

      .cls-60 {
        fill: #d1d1d1;
      }

      .cls-61 {
        fill: #f1f1f2;
      }

      .cls-62 {
        fill: #2f2b6c;
      }

      .cls-63 {
        fill: #c4c4c6;
      }

      .cls-64 {
        fill: #59587a;
      }

      .cls-65 {
        fill: #6b6b95;
      }

      .cls-66 {
        fill: #99999a;
      }

      .cls-67 {
        fill: #7f7d91;
      }

      .cls-68 {
        fill: #615d84;
      }

      .cls-69 {
        fill: #63608b;
      }

      .cls-70 {
        fill: #dbdbdb;
      }

      .cls-71 {
        fill: #a0a0a2;
      }

      .cls-72 {
        fill: #2e2b6c;
      }

      .cls-73 {
        fill: #c5c5c5;
      }

      .cls-74 {
        fill: #d0d0d0;
      }

      .cls-75 {
        fill: #29255a;
      }

      .cls-76 {
        fill: #d6d6d6;
      }

      .cls-77 {
        fill: #8582a0;
      }

      .cls-78 {
        fill: #cfcfcf;
      }

      .cls-79 {
        fill: #c9c9c9;
      }

      .cls-80 {
        fill: #eaeaeb;
      }

      .cls-81 {
        fill: #a3a1b8;
      }

      .cls-82 {
        fill: #a4a4a5;
      }

      .cls-83 {
        fill: #2c286b;
      }

      .cls-84 {
        fill: #59587b;
      }

      .cls-85 {
        fill: #625f7c;
      }

      .cls-86 {
        fill: #d4d4d5;
      }

      .cls-87 {
        fill: #9c9baa;
      }

      .cls-88 {
        fill: #8a87a3;
      }

      .cls-89 {
        fill: #8682a0;
      }

      .cls-90 {
        fill: #dcdcde;
      }

      .cls-91 {
        fill: #686893;
      }

      .cls-92 {
        fill: #2e2a6c;
      }

      .cls-93 {
        fill: #2c296b;
      }

      .cls-94 {
        fill: #686892;
      }

      .cls-95 {
        fill: #cecece;
      }

      .cls-96 {
        fill: #cfced7;
      }

      .cls-97 {
        fill: #625f8a;
      }

      .cls-98 {
        fill: #e7e7ea;
      }

      .cls-99 {
        fill: #6d6b8e;
      }

      .cls-100 {
        fill: #2c296c;
      }

      .cls-101 {
        fill: #cccccd;
      }

      .cls-102 {
        fill: #625f85;
      }
    </style>
  </defs>
  <path class="cls-9" d="m332.82,97.11c4.68-.07,9.35-.01,14.04.02-.01,1.64-.01,3.29,0,4.95-3.48.04-6.91.1-10.35.44-2.68-.55-5.51-2.45-3.69-5.41Z"/>
  <path class="cls-9" d="m346.27,97.72c12.74.19,25.54-.74,38.23.74-3.21.07-6.35.24-9.53.34-4.35,1.05-13.82-3.46-13.9,3.79-4.95.04-9.87.14-14.8.08-.01-1.66-.01-3.31,0-4.95Z"/>
  <path class="cls-9" d="m361.07,102.59c.08-7.25,9.55-2.74,13.9-3.79.99,1.72,2.15,3.34,3.4,4.9-5.8-.01-11.6.01-17.3-1.11Z"/>
  <path class="cls-13" d="m388.63,98.26c3.51-.16,6.98.1,10.46.65-3.5.25-7.02-.02-10.46-.65Z"/>
  <g>
    <path class="cls-20" d="m299.18,92.53c1.67-.11,5-.33,6.67-.44,3.67.04,7.32.04,11.01.02,17.66.01,35.33,0,52.99.01,3.68.03,7.32-.01,11-.04,2.73-.17,5.42,0,8.1.51,1.43.14,4.29.43,5.71.57,2.1-.14,4.23-.08,6.29.44,1.43.14,4.28.42,5.71.56,1.45-.04,2.88.11,4.3.44,1.42.14,4.28.42,5.7.56,1.44-.13,2.86.01,4.25.42,1.52.63,3.17.7,4.8.57.56.1,1.67.3,2.23.4,1.46.2,4.39.61,5.85.81l1.04.17c2.22.57,4.48.79,6.77.65,2.8.2,4.45,4.63,3.25,6.96,1.55,21.52,19.04,38.12,38.92,44.08,8,1.53,2.69,12.18,3.79,17.63-.46,4.4-.75,8.84-.74,13.27-.03,4.67.04,9.34.04,14.02-.03,1.23-.11,2.47-.26,3.71-.36,2.73-.7,5.49-.77,8.26-.11,4.24-.06,8.5-.17,12.76-.43,4.03-.71,8.09-.97,12.15l-.08.85c-.43,3.36-.74,6.76-.94,10.15l-.08.84c-.34,2.72-.64,5.49-.74,8.25.01,1.36-.15,2.71-.48,4.04-.61,1.51-.73,3.16-.5,4.78-5.09,53.1-35.2,102.85-78.64,133.58-18.2,13.28-37.54,24.93-57.37,35.58-47.63-26.68-98.75-57.79-119.92-110.89-.6-5.06-2.02-9.95-3.11-14.9.75-.07,2.24-.21,2.99-.28,1.97,5.55,3.95,11.14,6.75,16.34,2.32,5.2,5.05,10.19,8.12,14.98,6.55,12.89,17.41,22.45,27.4,32.54,5.72,8.19,13.51,14.51,21.54,20.32,3.91,2.73,7.89,5.39,11.79,8.17,3.37,2.21,6.82,4.34,10.23,6.52,3.87,2.47,7.84,4.82,11.77,7.21,7.52,4.17,14.49,9.94,22.43,13.04,9.43-3.47,17.54-9.98,26.33-14.86,4.73-2.9,9.43-5.84,14.05-8.92,4.85-3.19,9.56-6.59,14.16-10.14,4.66-3.51,9.52-6.83,13.7-10.92,21.43-18.92,38.61-42.98,49.3-69.58,12.84-29.45,13.39-62.16,16.26-93.65,1.96-17.6.45-35.34,2.23-52.94,1.35-4-1.18-7.35-4.71-8.33-6.3-2.21-11.65-6.19-17.27-9.66-5.21-3.74-8.83-9.01-12.66-14.02-3.24-4.92-5.8-10.34-6.93-16.15-.66-3.08-1.22-6.22-2.07-9.25-12.98-2.04-26.02-3.97-39.15-4.81-3.48-.55-6.95-.81-10.46-.65l-3.54-.39c-12.69-1.48-25.49-.55-38.23-.74-4.69-.03-9.36-.09-14.04-.02-14.08.61-28.25.52-42.27,1.58-4.31.34-8.62.43-12.91.89-3.01.28-5.98.54-8.95.97-2.66.31-5.28.6-7.91.98-4.52-.5-9.51.42-8.21,6.43-2.03,16.62-13.37,30.36-26.94,39.37-3.97,2.05-7.75,4.58-12.04,5.91-6.47.3-2.98,8.53-4.24,12.88-.61,17.41.72,34.82,1.04,52.23.21,8.93,1.8,17.83,1.44,26.77-3.93-3.01-4.13-11.03-5.62-16.27-.19-3.39-.22-6.78-1.07-10.07-.24-5.56-.26-11.12-.29-16.68-.54-13.06,1.14-26.32-.69-39.28-.06-1.16-.08-2.32-.08-3.48.31-3,.69-5.97.93-8.98,22.93-6.6,44.33-26.61,42.07-52.22,1.28.2,2.59.03,3.78-.52,2.37-.58,4.78-1.1,7.2-1.44,2.3.22,4.55.04,6.74-.54,1.68-.6,3.47-.67,5.23-.53,1.3.23,2.64.08,3.82-.55,1.97-.72,4.14-.51,6.2-.46,1.61.24,3.26.11,4.77-.51,1.95-.64,4.03-.41,6.05-.49,2.76-.06,5.57-.08,8.31-.57Z"/>
    <path class="cls-21" d="m290.55,98.69c14.02-1.06,28.19-.97,42.27-1.58-1.82,2.96,1.01,4.86,3.69,5.41,3.96,1.7,8.37,1.65,12.56,2.43-17.35,1.35-34.72-1.6-51.99.46-6.27,1.66-3.41-3.68-6.53-6.72Z"/>
    <path class="cls-9" d="m374.97,98.8c3.18-.1,6.32-.27,9.53-.34l3.54.39c3.44.63,6.96.9,10.46.65,13.13.84,26.17,2.77,39.15,4.81.85,3.03,1.41,6.17,2.07,9.25-.68,3.04-3.56,3.88-6.26,4.31-.45-2.96-.89-5.93-1.45-8.87-17.81-2.47-35.73-3.86-53.64-5.3-1.25-1.56-2.41-3.18-3.4-4.9Z"/>
    <path class="cls-21" d="m276.31,99.58c4.29-.46,8.6-.55,12.91-.89,3.12,3.04.26,8.38,6.53,6.72-4,.4-8,.65-12,.96-2.05-.04-9.52.51-6.13-1.13,4.57,1.05,2.2-6.44-1.31-5.66Z"/>
    <path class="cls-21" d="m267.36,100.55c2.97-.43,5.94-.69,8.95-.97,3.51-.78,5.88,6.71,1.31,5.66-3.39,1.64,4.08,1.09,6.13,1.13-3.58.52-7.14,1.07-10.7,1.64-4.41.29-8.85.52-13.2,1.33-1.2,7.16-1.9,15.33-7.18,20.81,3.54-6.73,4.33-14.26,5.16-21.68,1.29-.51,2.62-.92,3.94-1.33,2.92-.14,5.82-.58,8.66-1.28.85-2.66-.44-4.61-3.07-5.31Z"/>
    <path class="cls-21" d="m259.45,101.53c2.63-.38,5.25-.67,7.91-.98,2.63.7,3.92,2.65,3.07,5.31-2.84.7-5.74,1.14-8.66,1.28-.71-1.9-1.45-3.79-2.32-5.61Z"/>
    <path class="cls-21" d="m251.24,107.96c-1.3-6.01,3.69-6.93,8.21-6.43.87,1.82,1.61,3.71,2.32,5.61-1.32.41-2.65.82-3.94,1.33-.83,7.42-1.62,14.95-5.16,21.68-1.71,1.65-4.55,3.53-3.46,6.26-.68.95-1.45,1.84-2.22,2.71-1.97-1.46-4.68,1.3-3.6,3.34-1.29,1.52-2.59,3.03-3.76,4.65-.95.57-1.9,1.12-2.85,1.66-4.24-.22-8.86,1.45-12.48-1.44,13.57-9.01,24.91-22.75,26.94-39.37Z"/>
    <path class="cls-75" d="m336.51,102.52c3.44-.34,6.87-.4,10.35-.44,4.93.06,9.85-.04,14.8-.08,5.7,1.12,11.5,1.1,17.3,1.11,17.91,1.44,35.83,2.83,53.64,5.3.56,2.94,1,5.91,1.45,8.87,1.39,5.36,3.81,10.49,6.71,15.2,3.95,5.57,9.08,10.14,13.92,14.91,5.96,5.84,13.6,9.29,20.96,12.91,2.73,8.51.6,17.98,1.21,26.82-.77,50.3-5.25,103.49-32.94,147.03-9.09,15.48-21.81,28.27-36.22,38.81-4.44,3.9-9.38,7.15-14,10.81-3.98,2.86-8.38,5.1-12.17,8.22-4.6,3.13-9.41,5.93-14,9.05-6.91,3.96-13.73,8.12-20.87,11.62-5.86-2.03-11.12-5.89-16.68-8.75l-1.32-.84c.77-.77,1.55-1.53,2.34-2.27,4.88,2.54,9.54,5.85,14.87,7.3,6.7-1.84,12.31-6.27,18.28-9.69,4.61-2.23,8.86-5.13,12.93-8.21,3.34-2.28,6.83-4.34,10.12-6.69,2.05-1.3,4.08-2.63,6.03-4.08,4.03-2.87,7.95-5.9,11.75-9.07,3.56-2.84,7.03-5.8,10.22-9.06,4.28-3.03,7.4-7.29,10.99-11.06,3.31-3.73,6.24-7.8,9.12-11.87,3.52-5.13,6.73-10.47,9.75-15.91,3.89-7.15,7.35-14.56,10.25-22.17,3.5-8.64,5.94-17.67,7.8-26.79,7.74-36.39,9.56-74.01,8.55-111.12-3.15-1.64-6.39-3.05-9.6-4.56-3.3-2.68-6.79-5.1-10.14-7.7-5.25-5.84-11.09-11.16-15.88-17.4-4.46-6.15-5.07-13.85-6.82-21.01-6.34-1.71-13.01-1.93-19.53-2.55-7.15-1.27-14.4-1.88-21.65-2.27-4.12-.56-8.26-.57-12.39-.6-1.63-.11-4.9-.34-6.53-.45-6.66-.82-13.36-.64-20.04-.89-4.19-.78-8.6-.73-12.56-2.43Z"/>
    <path class="cls-88" d="m297.08,105.41c17.27-2.06,34.64.89,51.99-.46,6.68.25,13.38.07,20.04.89-1.5.15-2.99.29-4.48.44-9.55-.18-19.1-.29-28.64-.15-3,.04-5.94.06-8.91.18-6.66-.15-13.35-.51-19.9.96-5.07-.01-10.19-.22-15.17.83-5.02-.12-10.01.27-14.93,1.25-.68-.33-2.02-1-2.7-1.34,3.56-.57,7.12-1.12,10.7-1.64,4-.31,8-.56,12-.96Z"/>
    <path class="cls-46" d="m307.18,107.27c6.55-1.47,13.24-1.11,19.9-.96-3.99.39-7.98.53-11.96.84,4.45,14.81.44,31.56,1.61,46.94-.13,4.23-4.54,15.28,2.19,15.11-5.88,1.42-11.49,3.71-16.95,6.29-6.15-.86.36-6.86-1.2-10.39.24-18.94-.05-37.89.3-56.83,2.13.08,4.63,1.17,6.11-1Z"/>
    <path class="cls-80" d="m327.08,106.31c2.97-.12,5.91-.14,8.91-.18-2.58,1.75-6.17,4.51-4.21,7.98,2.29,13.49.68,27.37,1.01,41.01.3,3.94-1.66,8.44,1.06,11.92-1.56.22-4.66.65-6.22.86-1.23.14-2.47.28-3.69.42-1.69-.59-3.92-.89-5.02.88-6.73.17-2.32-10.88-2.19-15.11-1.17-15.38,2.84-32.13-1.61-46.94,3.98-.31,7.97-.45,11.96-.84Z"/>
    <path class="cls-61" d="m335.99,106.13c9.54-.14,19.09-.03,28.64.15,2.38.26,4.76.6,7.13,1.02-1.45,17.88-1,35.86-.68,53.78-.01,3.08,1.85,7.24-2.29,8.02-1.27.47-2.54.93-3.81,1.37-1.71-.73-3.91-1.04-5.2.6-3.12.23-6.13-.64-8.91-2-.91-1.42-2.71-1.38-4.11-.83-1.56-.1-3.13-.2-4.68-.31-2.77-.33-5.48-.68-8.23-.89-2.72-3.48-.76-7.98-1.06-11.92-.33-13.64,1.28-27.52-1.01-41.01-1.96-3.47,1.63-6.23,4.21-7.98Z"/>
    <g>
      <path class="cls-31" d="m364.63,106.28c1.49-.15,2.98-.29,4.48-.44,1.63.11,4.9.34,6.53.45,3.32.43,6.7.85,10.06.98,2.82,1.22,10.29-1.05,6.7,5.43-2.52,18.05,2.08,36.63-1.5,54.44l-.91.07c-2.92-1.27-5.31-1.02-7.18.76-4.7.13-9.37.53-14.02,1.13,4.14-.78,2.28-4.94,2.29-8.02-.32-17.92-.77-35.9.68-53.78-2.37-.42-4.75-.76-7.13-1.02Z"/>
      <path class="cls-31" d="m291.15,317.36c5.61-1.04,11.02-2.88,16.48-4.5.21,22.97.43,45.96.62,68.93-.08,2.68,2.48,4.29,3.56,6.54-2.37-1.22-4.67-2.56-6.88-4.02-4.63-3.85-9.54-7.33-14.3-10.98-.98-18.36-.67-36.81-.85-55.2.34-.2,1.03-.58,1.37-.77Z"/>
    </g>
    <path class="cls-89" d="m375.64,106.29c4.13.03,8.27.04,12.39.6-.58.1-1.74.28-2.33.38-3.36-.13-6.74-.55-10.06-.98Z"/>
    <path class="cls-70" d="m292.01,108.1c4.98-1.05,10.1-.84,15.17-.83-1.48,2.17-3.98,1.08-6.11,1-.35,18.94-.06,37.89-.3,56.83,1.56,3.53-4.95,9.53,1.2,10.39-4.93,2.59-9.71,5.5-14.18,8.83-1.21-22.23,1-44.87.04-67.24-1.99-4.49,1.19-6.95,4.18-8.98Z"/>
    <path class="cls-2" d="m385.7,107.27c.59-.1,1.75-.28,2.33-.38,7.25.39,14.5,1,21.65,2.27,1.32.43,2.64.83,3.94,1.32-1.06,19.1-1.48,38.35.18,57.43-1.73.29-3.47.47-5.2.64-5.91-.29-11.77-1.43-17.7-1.41,3.58-17.81-1.02-36.39,1.5-54.44,3.59-6.48-3.88-4.21-6.7-5.43Z"/>
    <path class="cls-63" d="m261.18,109.34c4.35-.81,8.79-1.04,13.2-1.33.68.34,2.02,1.01,2.7,1.34-.34.17-1.02.52-1.36.69-3.88.37-10.06-.74-12.47,3.45-1.77,6.95-2.37,14.32-5.95,20.65.79,42.25.55,84.56.55,126.84.56-.15,1.66-.45,2.21-.6-3.07,6.69-6.88,13.22-8.43,20.49-.71,5.71-1.77,11.88-.07,17.52,1.01,3.46,3.3,6.3,5.08,9.38,0,8.78,2.86,18.57-.73,27.25,5.22,8.29,11.2,16.1,16.96,24.02-.53.05-1.6.14-2.14.18-7.83-8.03-14.76-16.89-20.75-26.37-3.19-5.65-7.18-10.89-9.33-17.06-.11-.82-.21-1.64-.31-2.45.05-4.65-2.95-8.61-3.69-13.13,3.8,4.07,6.6,8.46,9.04,13.21.89-7.45,1.76-15.39-1.74-22.3,2.05-5.2.91-10.86,2.27-16.21-1.18-39.38.62-78.84-.93-118.19-1.5-2.7,3.02-5.61.39-7.56-3.09,1.04-5.87,2.83-8.96,3.88,1.71-1.74,3.28-3.66,4.24-5.93,1.17-1.62,2.47-3.13,3.76-4.65,1.36-.93,2.59-2.04,3.6-3.34.77-.87,1.54-1.76,2.22-2.71,1.53-1.86,2.63-4.01,3.46-6.26,5.28-5.48,5.98-13.65,7.18-20.81Z"/>
    <path class="cls-86" d="m277.08,109.35c4.92-.98,9.91-1.37,14.93-1.25-2.99,2.03-6.17,4.49-4.18,8.98.96,22.37-1.25,45.01-.04,67.24-4.6,4.44-8.47,9.54-11.83,14.96-9.11,3.21,1.49-7.97-2.27-11.97,2.06-21.46.91-43.51,1.17-65.2.96-3.89-1.8-8.56.86-12.07.34-.17,1.02-.52,1.36-.69Z"/>
    <path class="cls-6" d="m409.68,109.16c6.52.62,13.19.84,19.53,2.55,1.75,7.16,2.36,14.86,6.82,21.01-2.44,1.74-6.37,3.02-4.33,7.4-.85,7.85-.93,15.8-.12,23.66-1.31.37-2.63.66-3.95.96-6.62.29-12.23,5.22-19.03,3.81,1.73-.17,3.47-.35,5.2-.64-1.66-19.08-1.24-38.33-.18-57.43-1.3-.49-2.62-.89-3.94-1.32Z"/>
    <g>
      <path class="cls-101" d="m263.25,113.49c2.41-4.19,8.59-3.08,12.47-3.45-2.66,3.51.1,8.18-.86,12.07-.26,21.69.89,43.74-1.17,65.2,3.76,4-6.84,15.18,2.27,11.97-5.31,9.24-7.11,25.15,5,29.61-3.83,2.01-2.29,7.4-1.18,10.73-8.13,5.24-14.74,12.5-19.72,20.76-.55.15-1.65.45-2.21.6,0-42.28.24-84.59-.55-126.84,3.58-6.33,4.18-13.7,5.95-20.65Z"/>
      <path class="cls-101" d="m395.1,249.25c3.14-.43,6.33-.82,9.46-1.42-4.23,25.74-.4,52.26-1.7,78.28,1.35,14.58-2.8,30.21,2.11,44.25-3.8,3.17-7.72,6.2-11.75,9.07,0-43.03-1.52-86.31.52-129.27.34-.23,1.02-.68,1.36-.91Z"/>
    </g>
    <path class="cls-9" d="m439.72,113.56c1.13,5.81,3.69,11.23,6.93,16.15-1.68,1.89-4.03,2.9-6.48,3.36-2.9-4.71-5.32-9.84-6.71-15.2,2.7-.43,5.58-1.27,6.26-4.31Z"/>
    <path class="cls-9" d="m446.65,129.71c3.83,5.01,7.45,10.28,12.66,14.02,1.12,4.03-1.94,4.45-5.22,4.25-4.84-4.77-9.97-9.34-13.92-14.91,2.45-.46,4.8-1.47,6.48-3.36Z"/>
    <path class="cls-1" d="m250.54,136.41c-1.09-2.73,1.75-4.61,3.46-6.26-.83,2.25-1.93,4.4-3.46,6.26Z"/>
    <path class="cls-71" d="m431.7,140.12c-2.04-4.38,1.89-5.66,4.33-7.4,4.79,6.24,10.63,11.56,15.88,17.4-1.98,1.78-5.26,3.14-3.03,6.99-.37,9.71.68,19.51-.65,29.17-.52,1.85,1.87,6.18-1.52,4.02-5.78-8.24-13.94-14.34-23.16-18.18,1.87-2.68,11.39-7.41,4.08-7.38,1.32-.3,2.64-.59,3.95-.96-.81-7.86-.73-15.81.12-23.66Z"/>
    <path class="cls-18" d="m244.72,142.46c-1.08-2.04,1.63-4.8,3.6-3.34-1.01,1.3-2.24,2.41-3.6,3.34Z"/>
    <path class="cls-9" d="m459.9,143.14c5.62,3.47,10.97,7.45,17.27,9.66,3.53.98,6.06,4.33,4.71,8.33-1.78,17.6-.27,35.34-2.23,52.94-2.87,31.49-3.42,64.2-16.26,93.65-10.69,26.6-27.87,50.66-49.3,69.58,2.57-5.21-2.6-5.74-6.4-4.34,14.41-10.54,27.13-23.33,36.22-38.81,27.69-43.54,32.17-96.73,32.94-147.03-.61-8.84,1.52-18.31-1.21-26.82-7.36-3.62-15-7.07-20.96-12.91,3.28.2,6.34-.22,5.22-4.25Z"/>
    <path class="cls-21" d="m212.26,153.24c4.29-1.33,8.07-3.86,12.04-5.91,3.62,2.89,8.24,1.22,12.48,1.44-3.25,2.32-6.45,4.71-9.91,6.72-4.77,2.37-12.49,4.54-14.61-2.25Z"/>
    <path class="cls-19" d="m238.11,148.77c.95-.54,1.9-1.09,2.85-1.66-.96,2.27-2.53,4.19-4.24,5.93-2.67,1.18-4.93,3.07-7.1,4.97-3.04,1.8-6.46,2.78-9.55,4.47-.6,37.19-.11,75.19,8.82,111.5,2.32,8.79,3.62,18.03,7.76,26.23.74,4.52,3.74,8.48,3.69,13.13-3.92-6.01-6.2-12.88-8.72-19.54-4.81-16.62-8.04-33.65-10.48-50.81-.36-7.27-1.02-14.54-2.25-21.72-.45-13.98-1.41-27.93-1.24-41.94.12-6.13.15-12.26.05-18.39,3.43-1.94,7.26-3.17,10.5-5.45,3.46-2.01,6.66-4.4,9.91-6.72Z"/>
    <path class="cls-34" d="m236.72,153.04c3.09-1.05,5.87-2.84,8.96-3.88,2.63,1.95-1.89,4.86-.39,7.56,1.55,39.35-.25,78.81.93,118.19-1.36,5.35-.22,11.01-2.27,16.21,3.5,6.91,2.63,14.85,1.74,22.3-2.44-4.75-5.24-9.14-9.04-13.21-4.14-8.2-5.44-17.44-7.76-26.23,1.18,1.25,2.35,2.54,3.81,3.49.36-38.45.09-76.91.14-115.36.39-2.16-1.94-2.91-3.22-4.1,2.17-1.9,4.43-3.79,7.1-4.97Z"/>
    <path class="cls-15" d="m203.89,152.11c.28-.44.84-1.31,1.12-1.75-.24,3.01-.62,5.98-.93,8.98-.05-1.8-.14-5.42-.19-7.23Z"/>
    <path class="cls-55" d="m451.91,150.12c3.35,2.6,6.84,5.02,10.14,7.7-2.78,27.25-.39,54.89-1.2,82.29.8,9.07-2.05,19.06,2.21,27.53-1.5,1.84-1.12,3.91.04,5.86-1.86,9.12-4.3,18.15-7.8,26.79-1.22-3.87-4.11-7.43-2.9-11.77.06-24.47-1.72-49.02.26-73.46-1.33.16-2.62.45-3.91.77,2.03-8.42,1.91-17.68-2.04-25.53,3.39,2.16,1-2.17,1.52-4.02,1.33-9.66.28-19.46.65-29.17-2.23-3.85,1.05-5.21,3.03-6.99Z"/>
    <path class="cls-21" d="m209.35,166.12c1.26-4.35-2.23-12.58,4.24-12.88,2.12,6.79,9.84,4.62,14.61,2.25-3.24,2.28-7.07,3.51-10.5,5.45-1.34,1.34-.59,3.61-.91,5.33-2.5.19-5.23,1.43-7.44-.15Z"/>
    <g>
      <path class="cls-33" d="m220.07,162.48c3.09-1.69,6.51-2.67,9.55-4.47,1.28,1.19,3.61,1.94,3.22,4.1-.05,38.45.22,76.91-.14,115.36-1.46-.95-2.63-2.24-3.81-3.49-8.93-36.31-9.42-74.31-8.82-111.5Z"/>
      <path class="cls-33" d="m482.68,389.98c9.37-1.24,18.78-2.47,28.23-2.9.78.06,2.36.18,3.14.24-8.59,4.28-10.03,15.06-18.31,19.74-9.04,4.06-20.54,4.7-30.12,1.78-1.64-2.97,2.4-5,3.77-7.17,4.57-3.65,7.24-10.59,13.29-11.69Z"/>
    </g>
    <path class="cls-40" d="m462.05,157.82c3.21,1.51,6.45,2.92,9.6,4.56,1.01,37.11-.81,74.73-8.55,111.12-1.16-1.95-1.54-4.02-.04-5.86-4.26-8.47-1.41-18.46-2.21-27.53.81-27.4-1.58-55.04,1.2-82.29Z"/>
    <path class="cls-87" d="m216.79,166.27c.32-1.72-.43-3.99.91-5.33.1,6.13.07,12.26-.05,18.39-.47-4.34-.75-8.7-.86-13.06Z"/>
    <path class="cls-26" d="m204.16,162.82c1.83,12.96.15,26.22.69,39.28l-.96.02-.03-1c.04-12.77-.2-25.54.3-38.3Z"/>
    <path class="cls-43" d="m408.6,168.55c6.8,1.41,12.41-3.52,19.03-3.81,7.31-.03-2.21,4.7-4.08,7.38,9.22,3.84,17.38,9.94,23.16,18.18,3.95,7.85,4.07,17.11,2.04,25.53-1.77,3.93-3.71,7.84-6.77,10.93-3.59,3.43-7.04,7.04-11.14,9.88-2.42,1.44-4.83,2.89-7.27,4.29-4.25,1.75-8.54,3.42-12.92,4.82-2.06.6-4.09,1.31-6.09,2.08-3.13.6-6.32.99-9.46,1.42-5.49-.07-10.95-.2-16.42.07l-.87-.09c-8.88-3.27-10.63,10.7-15.86,15.79-8.9,11.36-17.97,22.75-29.29,31.82-7.92,5.98-16.17,11.54-25.03,16.02-5.46,1.62-10.87,3.46-16.48,4.5-4.15-.07-8.29-.12-12.42-.15-8.16-.97-16.09-3.59-22.09-9.44-1.78-3.08-4.07-5.92-5.08-9.38.16-5.85.17-11.69.07-17.52,1.55-7.27,5.36-13.8,8.43-20.49,4.98-8.26,11.59-15.52,19.72-20.76,5.07-2.85,10.29-5.99,16.21-6.55-2.19,5.3-7.78,8.53-11.46,12.89-8.64,7.51-14.06,18.11-17.01,29.04-1.09,1.49-1.04,3.39-.62,5.11l-.11.78c-.75,4.74-1.81,9.83-.27,14.53,1.21,8.51,8.4,13.69,16.25,15.45,8.57,2.58,17.74-.65,25.03-5.21,9.15-5.68,15.65-14.41,21.03-23.56,18.86-30.52,33.86-63.52,56.34-91.69,5.19-5.85,11.11-10.98,17.51-15.46.16-3.38-6.01-2.1-8.58-3.11-4.47-.54-9.12-1.34-13.53-.08-1.66.31-3.31.63-4.96.96-3.95.58-7.92,1.01-11.86,1.6,3.8,5.23,8.72,10.49,7.14,17.8-4.64,21.71-23.68,38.18-44.89,43.13-4.73-.07-9.44-.02-14.16-.21-6.79-1.3-12.4-7.64-11.01-14.88,2.16-22.75,24.04-35.79,43.02-44.03,4.09-3.47-5.49-2.04-7.76-3.17-3.16-.77-6.4-1.21-9.52-.18-12.55,2.48-25.97,6.32-34.53,16.5-6.32,5.75-11.54,15.3-8.21,23.88,1.76,5.08,7.32,6.4,11.97,7.32.27,7.22-9.13,9.71-14.84,8.41-12.11-4.46-10.31-20.37-5-29.61,3.36-5.42,7.23-10.52,11.83-14.96,4.47-3.33,9.25-6.24,14.18-8.83,5.46-2.58,11.07-4.87,16.95-6.29,1.71.3,3.61.33,5.02-.88,1.22-.14,2.46-.28,3.69-.42,4.81.03,9.63.09,14.45.03,1.55.11,3.12.21,4.68.31.97,1.32,2.7,1.27,4.11.83,2.78,1.36,5.79,2.23,8.91,2,1.74.41,3.65.46,5.2-.6,1.27-.44,2.54-.9,3.81-1.37,4.65-.6,9.32-1,14.02-1.13,2.9,1.29,5.29,1.03,7.18-.76l.91-.07c5.93-.02,11.79,1.12,17.7,1.41Zm-95.75,43.51c-1.76.52-1.85,9.67.02,8.99,1.08,3.68,4.33,6.39,8.09,7.02,3.31,1.89,6.57,1.86,9.79-.07,16.97-2.85,32.97-20.31,28.26-38.01-2.05-4.04-4.31-11.34-10.05-10.83-14.81,6.87-32.63,15.34-36.11,32.9Zm103.17-32.96c-2.03,2.84-4.6,5.39-5.99,8.63-14.13,15.94-21.44,36.62-33.5,53.98-3.65.97,4.14,4.65,5.33,1.51,10.83-.81,21.5-5.71,29.23-13.03,8.24-6.51,14.07-15.49,17.43-25.39,3.57-10.66-3.36-21.16-12.5-25.7Z"/>
    <g>
      <path class="cls-17" d="m162.84,205.19c-.99-14.45-3.59-32.69,13.05-39.18-.06,7.14-1.84,14.11-3.02,21.12-.7,7.37-8.7,12.09-7.05,20.02,6.52-3.7,11.09-11.34,17.03-15.13.48,13.4-6.5,27.36-19.18,32.88-1.16,4.9-1.12,10.95-1.84,16.28,6.6-5.36,11.23-15.31,20.41-18.37,1.21,2.52.3,5.17-1.77,6.95-6.79,7.34-12.11,15.82-18.3,23.63-1.15,1.78-3.29,1.71-5.17,1.83-12.72-4.05-17.26-18.31-14.75-30.54,1.88-1.38-.42-9.19,3.38-8.39,3.92,7.49,6.66,16.21,13.06,22.04.17-5.69.53-11.37,1.08-17.03-13.07-6.35-13.79-23.24-8.71-35.1,5.26,4.46,4.88,16.27,11.78,18.99Z"/>
      <path class="cls-17" d="m515.82,166.06c17.29,6.09,14.42,24.87,13.05,39.13,7.13-2.44,6.8-14.45,11.79-19.07,4.09,10.56,5.6,25.39-5.18,32.56-7.47,3.44-.77,13.58-2.46,19.57,6.54-5.71,8.84-15.71,13.78-22,4.57,10.11,4.56,23.39-2.3,32.5-3.46,3.55-8.5,4.96-12.02,8.4-2.14-1.45-4.8-2.82-4.72-6.01-4.27-11.19-16.43-17.57-20.22-28.95,9.57,2.96,15.98,11.39,21.45,18.8,1.82-2.77-.7-10.88-.29-15.69-13.11-5.53-20.27-19.42-19.85-33.27,6.23,3.72,9.94,11.85,17.06,15.11.28-3.19-.21-6.53-1.78-9.33-8.06-8.52-5.74-21.21-8.31-31.75Z"/>
      <path class="cls-17" d="m177.75,387.37c.48-.09,1.46-.26,1.95-.34,9.51-.21,18.93,1.67,28.32,2.58,5.96-2.43,7.68,4.29,10.27,8.05,3.41,3.12,8.05,5.81,7.86,11.05-10.21,2.39-22.89,3.25-32.23-2.61-7.59-4.63-9.07-13.8-16.17-18.73Z"/>
    </g>
    <path class="cls-21" d="m210.39,218.35c-.32-17.41-1.65-34.82-1.04-52.23,2.21,1.58,4.94.34,7.44.15.11,4.36.39,8.72.86,13.06-.17,14.01.79,27.96,1.24,41.94,3.4-7.93-9.42-11.45-8.5-2.92Z"/>
    <path class="cls-39" d="m327.63,167.9c1.56-.21,4.66-.64,6.22-.86,2.75.21,5.46.56,8.23.89-4.82.06-9.64,0-14.45-.03Z"/>
    <path class="cls-29" d="m382.81,167.97c1.87-1.78,4.26-2.03,7.18-.76-1.89,1.79-4.28,2.05-7.18.76Z"/>
    <path class="cls-81" d="m318.92,169.2c1.1-1.77,3.33-1.47,5.02-.88-1.41,1.21-3.31,1.18-5.02.88Z"/>
    <path class="cls-52" d="m346.76,168.24c1.4-.55,3.2-.59,4.11.83-1.41.44-3.14.49-4.11-.83Z"/>
    <path class="cls-77" d="m359.78,171.07c1.29-1.64,3.49-1.33,5.2-.6-1.55,1.06-3.46,1.01-5.2.6Z"/>
    <path class="cls-5" d="m380.57,171.76c4.41-1.26,9.06-.46,13.53.08-4.52.04-9.02.04-13.53-.08Z"/>
    <path class="cls-102" d="m326.57,172.78c3.12-1.03,6.36-.59,9.52.18-3.2-.09-6.34-.06-9.52-.18Z"/>
    <path class="cls-96" d="m375.61,172.72c1.65-.33,3.3-.65,4.96-.96,4.51.12,9.01.12,13.53.08,2.57,1.01,8.74-.27,8.58,3.11-6.4,4.48-12.32,9.61-17.51,15.46-6.82-5.38,4.45-19.72-9.56-17.69Z"/>
    <path class="cls-90" d="m292.04,189.28c8.56-10.18,21.98-14.02,34.53-16.5,3.18.12,6.32.09,9.52.18,2.27,1.13,11.85-.3,7.76,3.17-18.98,8.24-40.86,21.28-43.02,44.03-1.39,7.24,4.22,13.58,11.01,14.88-2.83-.58-4.98,2.08-4.61,4.75,1.98,21.88-.5,44.1.57,65.87-7.29,4.56-16.46,7.79-25.03,5.21,1.66-.65,3.32-1.3,4.9-2.13.49-19.09.25-38.21-.26-57.28.94-2.52-1.27-4.02-2.88-5.5,3.68-4.36,9.27-7.59,11.46-12.89-5.92.56-11.14,3.7-16.21,6.55-1.11-3.33-2.65-8.72,1.18-10.73,5.71,1.3,15.11-1.19,14.84-8.41-4.65-.92-10.21-2.24-11.97-7.32-3.33-8.58,1.89-18.13,8.21-23.88Z"/>
    <path class="cls-98" d="m363.75,174.32c3.94-.59,7.91-1.02,11.86-1.6,14.01-2.03,2.74,12.31,9.56,17.69-22.48,28.17-37.48,61.17-56.34,91.69-5.38,9.15-11.88,17.88-21.03,23.56-1.07-21.77,1.41-43.99-.57-65.87-.37-2.67,1.78-5.33,4.61-4.75,4.57.87,9.69,2.19,14.16.21,21.21-4.95,40.25-21.42,44.89-43.13,1.58-7.31-3.34-12.57-7.14-17.8Z"/>
    <path class="cls-50" d="m312.85,212.06c3.48-17.56,21.3-26.03,36.11-32.9,5.74-.51,8,6.79,10.05,10.83,4.71,17.7-11.29,35.16-28.26,38.01-3.29.04-6.52.13-9.79.07-3.76-.63-7.01-3.34-8.09-7.02-.05-3.02-.03-5.99-.02-8.99Z"/>
    <path class="cls-45" d="m416.02,179.1c9.14,4.54,16.07,15.04,12.5,25.7-3.36,9.9-9.19,18.88-17.43,25.39-.65-12.51-2.64-25.25.31-37.66.6-1.82.2-3.64-1.37-4.8,1.39-3.24,3.96-5.79,5.99-8.63Z"/>
    <path class="cls-47" d="m376.53,241.71c12.06-17.36,19.37-38.04,33.5-53.98,1.57,1.16,1.97,2.98,1.37,4.8-2.95,12.41-.96,25.15-.31,37.66-7.73,7.32-18.4,12.22-29.23,13.03-1.79-.3-4.31.43-5.33-1.51Z"/>
    <path class="cls-51" d="m2139.08,197.27c1.83-.05,3.68-.04,5.56.03,4.01.42,8.16.67,12.29.95.51.09,1.52.25,2.03.33,1.46.17,4.37.53,5.83.7l.97.25c1.19.61,2.55.75,3.92.62,4.26.5,11.02,1.94,9.93,7.68-.53,3.74-.78,7.5-.77,11.27-.56,7.83,1.29,16.13-1.3,23.7-1.82,4.19-9.12,2.76-8.7-1.88.39-2.4.24-4.66-.47-6.77-3.84-10.02-12.44-18.49-23.23-20.32-4.51-.57-9.28-1.72-13.59,0-9.45,2.22-19.47,9.51-18.71,20.28-1.48,14.17,11.9,23.45,21.28,31.72,20,15.32,44.35,31.72,48.72,58.44-.22,1.3-.07,2.67.72,3.79.22,5.68.28,11.37.32,17.07-2.61,22.63-22.25,40.42-44.18,43.96-1.36-.19-2.7-.06-3.86.56-.53.09-1.59.27-2.13.36-1.44.14-4.32.44-5.76.59-5.44.51-10.85,1.04-16.2.06-2.31-.55-4.56-.78-6.78-.7l-1.03-.27c-1.61-.6-3.3-.79-4.95-.87-1.22-.72-2.63-.9-3.96-.72-5.77-1.36-14.01-2.58-16.16-9.07-.06-7.9-.17-15.79.19-23.68.49-4.75.83-9.52.83-14.29-2.13-6.83,9.75-10.18,9.92-2.78l.52,5.76c1.1,19.51,19.28,34.01,38.7,30.1,1.27.17,2.62.05,3.84-.53,9.56-2.19,17.84-9.66,20.31-19.23.72-3.53.71-7.05,0-10.56-2.27-16.13-16.31-26.48-28.35-35.67-18.95-14.37-39.43-32.61-41.01-58.05-.13-3.36.07-6.68.03-10.03,1.14-21.25,20.31-37.39,40.19-40.98,1.58.21,3.23.08,4.76-.57,3.45-.46,6.74-.83,10.28-1.26Z"/>
    <path class="cls-83" d="m607.87,206.04c.18-2.06,1.36-5.44,3.98-4.94,7.66,0,15.33.04,23.01.02,11,.01,21.99,0,33-.01,9.66.04,19.33.01,29.01-.03,21.77.53,44.95,14.92,47.02,38.02-.06,6.67,0,13.35-.04,20.03-3.51,23.34-24.53,41.91-47.17,45.93-1.43.15-4.28.46-5.71.62-4.7.26-9.36.44-14.04.45-5.85-.69-5.13-8.76.26-9.66,17.21,1.02,30.78-14.21,33.87-30.12,1.12-5.79,1.33-11.87.1-17.65-.14-1.54-.15-3.15-.87-4.55-3.9-12.89-13.3-24.95-27.15-27.37-5.17-.68-10.57-1.29-15.67-.05-1.45,40.72-.17,81.6-.63,122.38-.07,5.77-.09,11.56.64,17.3.1,1.72.3,5.16.41,6.89-.2,1.6-.22,3.28.46,4.8,1.07,3.79,2.43,9.05,7.23,9.3,2.33.37,4.68.69,7.05.96,2.66.29,5.45.61,8.17.86,4.12.62,4.05,7.14,0,7.88-8.66.05-17.3-.04-25.95.01-10.01-.01-20-.03-30,0-6.68-.05-13.34.01-20,0-3.5.57-4.91-7.94-.77-7.96,2.27.22,4.52.07,6.74-.44,4.5-.42,8.29-3.14,9.51-7.59.74-1.14.68-2.54.56-3.83.05-.73.16-2.19.22-2.92.55-4.41.83-8.84.77-13.27.02-4.59-.27-9.18.24-13.73,1.21-33.11,1.2-66.5.14-99.58-2.03-8.11,3.54-23.14-7.47-26.61-5.17-2.61-14.73,1.72-16.92-5.14Z"/>
    <g>
      <path class="cls-72" d="m1114.4,243.5c-5.46-19.13,12.09-37.2,30.57-38.24,5.3-.3,10.56-.15,15.9-.13,4.71,1.65,12.34,1.09,14.98,6.03,0,6.01.04,12.03-.01,18.05-.11.48-.32,1.43-.42,1.91-.66,1.17-.77,2.52-.56,3.83.86,4.11-7.59,6.82-7.54,1.78.31-6.71-2.5-14.16-8.63-17.48-7.7-4.76-19.98-2.71-23.2,6.53-2.69,10.87,3.65,21.25,10.62,29.06,11.25,13.33,23.47,26.13,36.77,37.25,3.7-2.1,3.45-7.99,5.18-11.75,1.05-3.55,1.08-7.05.08-10.5-3.02-4.39-11.09-.58-12.28-6.73,1.4-6.77,9.63-3.63,14.74-3.75,3,.37,6.19.8,9.28.76,2.71-.22,7.43.63,7.04,4.18v6.62c-.37,11.23-7.44,20.66-12.05,30.14,7.35,7.68,17.52,14.08,27.97,17.56,1.17.64,2.53.67,3.86.48,4.64-1.53,7.69,6.32,2.52,7.41-8.01.85-16.4,1.2-24.47.15-2.25-.61-4.49-.81-6.7-.6-.54-.09-1.63-.28-2.17-.38-1.2-.65-2.55-.76-3.85-.59-6.75.61-12.65-11.41-18.5-5.32-7.66,5.69-17.23,8.73-26.67,9.38-3.73-.06-7.32-.07-11.01-.01-18.31-.39-36.64-12.98-38.96-32.03-.1-3.69-.06-7.33,0-11.01,2.09-12.67,11.37-22.54,21.84-29.26-.28-4.55-4.93-8.22-4.32-13.34Zm6.45,36.58c-2.63.4-1.32,10.7-.03,11.04.48,10.34,9,19.99,19,22.01,2.41,2.47,13.57,1.22,16.07,0,3.96-.24,7.44-2.58,10.92-4.33-13.2-13.7-27.11-26.76-39.16-41.53-4.23,1.36-6.11,8.34-6.8,12.81Z"/>
      <path class="cls-72" d="m759.83,270.09c1.38-24.81,23.28-45.97,48.03-47.01,6.36.07,12.71,0,19.1.05.48.11,1.44.32,1.91.42,1.21.61,2.57.75,3.92.64l.99.32c1.19.65,2.56.77,3.91.62,18.08,5.13,34.14,21.59,35.19,40.97-.05,5-.02,10.02,0,15.03-.11.75-.34,2.24-.46,2.99-.63,1.17-.75,2.51-.58,3.82-4.63,21.71-24.7,39.17-46.97,40.2-6.02-.05-12.02-.06-18.02,0-24.55-1.27-45.55-22.57-47.01-47.01-.02-3.69.06-7.35,0-11.03Zm47.02-34.98c-13.52,1.86-21.56,15.22-22.01,27.98-2.48,2.34-1.24,13.61,0,16.05,1.37,15.29,10.46,31.9,26.19,35.95-.18,1.79,2.88,1.75,3.79.72.88,3.08,10.98,1.54,12.05.33,14.16-2.5,20.85-17.93,20.98-31,2.35-2.43,1.33-11.96.04-14.04-.75-16.24-11.92-33.74-28.99-36.01-1.38-2.55-10.96-1.32-12.05.02Z"/>
      <path class="cls-72" d="m1680.87,224.58c2.86-1.21,5.79-1.52,8.98-1.48,7.31.01,14.64.04,22.01-.03,1.66.02,3.39-.01,5.04.52,1.54.59,3.21.7,4.89.61l1.01.3c1.56.61,3.24.81,4.93.93,1.54.71,3.25.86,4.95.66,1.29-.26,3.3.46,3.15,2.06-.05,2.65-.04,5.3.03,7.96-.06,5.64-.02,11.29-.01,16.94-.28,4.24-6.74,6.72-7.92,1.85-.16-1.42-.48-4.24-.64-5.65-2.97-9.47-13.07-13.31-22.15-14.43-4.86-.6-9.89-1.54-14.62-.07-13.72,2.57-24.4,14.08-25.94,28.09-.75,6.09-1.67,12.55-.08,18.6,2.49,17.04,16.54,30.51,33.08,33.95,4.73.68,9.88,1.51,14.61.08,11.07.33,14.53-10.88,18.9-17.41,1.45.07,2.93.09,4.44.05,1.97,1.78,2.27,4.12.9,7.02-.68,1.16-.81,2.51-.57,3.82-.11.79-.33,2.38-.44,3.17-.67,1.17-.79,2.52-.57,3.83.6,9.35-10.53,12.49-17.98,12.16-3.57-.06-6.93-.22-10.34.62-1.15.26-2.28.3-3.4.13-3.51-.46-6.83-.8-10.3-.81-26.01-.49-52.52-19.69-54-46.93-.04-4.36-.01-8.7.03-13.04,1.94-20.64,17.94-38.49,38.17-42.95,1.28.16,2.63.08,3.84-.55Z"/>
    </g>
    <path class="cls-12" d="m312.87,221.05c-1.87.68-1.78-8.47-.02-8.99,0,3-.03,5.97.02,8.99Z"/>
    <path class="cls-9" d="m210.39,218.35c-.92-8.53,11.9-5.01,8.5,2.92,1.23,7.18,1.89,14.45,2.25,21.72,1.74-5.47-4.84-9.99-8.13-5.55-.22,22.46,5.98,44.36,12.81,65.58-.75.07-2.24.21-2.99.28,1.09,4.95,2.51,9.84,3.11,14.9-3.47-6.4-6.59-14.27-7.86-21.7.95-7.51-2.21-14.6-3.57-21.86-1.73-7.72-1.22-16.38-6.52-22.75-.98-6.9-2.17-13.93-2.03-20.9.06-.53.19-1.61.25-2.14,1.49,5.24,1.69,13.26,5.62,16.27.36-8.94-1.23-17.84-1.44-26.77Z"/>
    <path class="cls-66" d="m448.75,215.83c1.29-.32,2.58-.61,3.91-.77-1.98,24.44-.2,48.99-.26,73.46-1.21,4.34,1.68,7.9,2.9,11.77-2.9,7.61-6.36,15.02-10.25,22.17-3.94-9.57-1.57-20.32-2.2-30.35-.49-21.77,1.1-43.65-.87-65.35,3.06-3.09,5-7,6.77-10.93Z"/>
    <g>
      <path class="cls-62" d="m1310.98,224.27c1.73-4.02,7.64-3.2,8.87.86,11.96,28.82,24.43,57.44,36.96,86.02,2.09,4.63,6.54,9.09,12.05,7.97,2.62-1.88.3-8.43.99-12.02-.27-4.02-.29-8.54,2.2-11.95,5.94-3.1,6.79,4.52,7.05,7.85,1.02,6.2,5.56,11.39,11.48,13.41,4.03.49,8.62,1.7,12.61.03,3.51-1.15,6.19-3.9,7.9-7.11.7-2.77,1.39-5.87.09-8.55-9.52-17.68-36.47-23.96-38.35-46.64-.03-2.7-.02-5.38.02-8.06,1.19-12.92,13.53-22.2,25.99-22.97,4.62-.02,9.34,0,14.02-.02,1.36-.05,2.71.11,4.04.5,1.54.6,3.21.69,4.88.58l.99.33c1.17.66,2.53.78,3.89.65,1.3.04,2.04.72,2.23,2.03-.18,2.89-.08,5.81-.22,8.71-.58,4.38-.79,8.81-.85,13.23.44,4.61-7.97,2.8-6.97-1.18.13-1.3.25-2.72-.52-3.85-1.82-4.07-4.76-7.97-9.19-9.28-4.11-.4-8.71-1.89-12.61,0-2.43,1.09-4.24,3.09-5.93,5.02-1.36,2.6-1.1,5.94-.07,8.61,7.96,13.61,26.45,17.54,34.26,31.72,14.57,18.72-.87,47.93-23.93,47.98-5.7-.05-11.37-.06-17.01,0-4.66.97-8.69-3.22-13.14-2.3-11.7,2.56-23.87.89-35.75,1.21-5.96-.14-5.7-5.21-3.08-8.94-2.51-7.53-5.57-15.01-8.75-22.29-9.29-.74-19.36-1.93-28.56-.02-2.49,6.19-4.89,12.45-7.3,18.67-4.6,8.78,7.55,1.57,9.01,7.29,1.98,4.96-5.67,6.47-9.16,5.09-6.16-.66-12.5-1.54-18.58-.12-4.83.38-16.12,2.56-12.61-6.46,4.95-1.92,11.62-1.09,14.57-6.47,13.35-29.59,24.59-60.21,38.48-89.53Zm.07,35.22c-3.79,7.11-6,15.11-9.1,22.6,5.99.19,11.97.02,18.01-.05-2.54-7.37-6.29-16.89-8.91-22.55Z"/>
      <path class="cls-62" d="m1470.85,223.55c.48-.1,1.44-.32,1.92-.42,4.69-.07,9.35-.03,14.12-.02,2.95-.04,6.15.26,8.96,1.47,1.16.62,2.49.7,3.81.57,2.62.38,3.76,3.3,2.95,5.69-.88,5.72-.78,11.51-.76,17.28.3,1.44-.66,3.07-2.22,3.03-1.17-.08-2.31-.11-3.44-.07-4.04-4.86-3.2-14.65-11.05-16.26-4.14-.52-8.64-1.71-12.61-.04-3.28.96-5.6,3.5-7.1,6.46-1.49,1.88-1.37,4.92,0,6.77,11.12,16.12,36.77,22.18,39.44,44.08-.08,3.66,0,7.36.02,11.04-.89,14.32-15.57,24.37-29,25-5.4-.01-10.7-.06-16.05,0-7.24.11-19.62-2.63-16.69-12.76.43-4.77.77-9.53.72-14.31-1.65-6.17,7.98-8.49,8-1.8-.2,1.3-.2,2.68.49,3.87,1.56,5.92,5.47,10.99,11.31,13.15,4.23.56,9.36,2.18,13.43,0,9.52-3.54,10.02-16.35,3.06-22.48-11.51-11.44-30.41-19.33-33.3-36.87.18-1.31.07-2.66-.57-3.82-2.71-13.04,8.02-26.59,20.74-28.99,1.28.15,2.63.04,3.82-.59Z"/>
    </g>
    <g>
      <path class="cls-92" d="m1845.12,225.38c.86-3.87,7.21-5.64,8.71-1.22,11.5,24.26,20.87,49.52,32.16,73.9,3.49,6.68,4.94,14.86,11.14,19.75,3.46,2.48,9.01-.55,11.55,3.55,1.55,3.78-3.03,7.68-6.81,5.74-10.74-.53-21.86,1.1-32.38-.58-5.87-1.58.76-6.61-1.01-10.07-2.91-6.83-5.7-13.74-8.35-20.65-9.3-.63-19.42-2.03-28.55.03-2.81,7.55-7.38,14.82-7.73,23.08,5.62-3.06,14.29,4.75,6.71,8.14-1.61-.05-4.84-.15-6.46-.2-6.15-.46-12.52-1.76-18.52,0-7.19.34-14.36.31-21.49.02-7.79-.61-15.83-1.81-23.51-.06-2.6.12-5.14.23-7.64.32-3.63-.76-4.38-6.25-.77-7.69,3.55,1.02,8.01-1.12,8-5.05.59-5,.63-10.03.93-15.05,1.21-17.45,1.21-35.08.16-52.53-.9-3.88.56-8.29-1.19-11.95-.36-.52-1.07-1.55-1.43-2.07-1.39-.17-4.18-.52-5.57-.69-1.46.26-3.39-.52-3.24-2.22.05-1.2.04-2.38-.02-3.57.26-.29.78-.86,1.04-1.15,13.97-.1,27.96-.06,41.96-.04,4.17.83,1.67,7.82-2.16,7.05-1.49.08-3.76-.84-4.63.72-.71,1.23-1.28,2.54-1.48,3.94-1.1,24.79-1.16,49.83-.13,74.61.13,2.58.05,5.53,2.48,7.07,1.24,1.17,3.18.57,4.76.6,5.69.28,13.31,0,16.21-5.97,12.37-29.28,24.59-58.61,37.26-87.76Zm-.04,34.85c-2.57,7.34-5.37,14.59-8.13,21.86,5.91.17,11.83.03,17.81.06-2.52-7.38-5.39-14.62-8.15-21.9-.38-.01-1.15-.02-1.53-.02Z"/>
      <path class="cls-92" d="m1560.85,223.56c1.28-.4,2.62-.56,4.02-.48,5.63.04,11.3.03,16.99,0,1.35-.08,2.69.08,4.01.48,1.16.61,2.48.73,3.82.59,17.89,3.51,34.74,17.79,38.13,36.13-.18,1.3-.05,2.64.6,3.82.11.48.32,1.44.43,1.92-.04,5.05.06,10.12-.01,15.19-.11.47-.32,1.43-.42,1.91-.67,1.17-.79,2.52-.56,3.83-3.88,22-24.66,40.15-47,41.19-6.04-.05-12.04-.06-18.02,0-24.63-.94-45.7-22.64-47.02-47.02-.05-3.69.09-7.34.02-11.02.99-22.37,19.27-42.23,41.19-45.94,1.28.14,2.62.02,3.82-.59Zm1.99,11.52c-13.2,1.92-21.96,15.15-22,28.01-2.5,2.32-1.24,13.64,0,16.03,1.23,15.31,10.94,33.1,27.18,35.87.27,1.42,1.31,1.95,3.13,1.6.12,1.43,10.95,1.17,11.73-.42,14.06-2.98,20.67-17.82,20.99-31.04,2.45-1.92,1.31-11.39.02-13.04-.12-.75-.35-2.24-.47-2.99,1.08-.85,1.26-3.98-.55-3.83-1.82-14.19-12.68-27.25-26.98-30.15-1.92-2.47-11.4-1.39-13.04-.04Z"/>
    </g>
    <g>
      <path class="cls-38" d="m182.24,222.81c-.71-1.41,5.57-1.34,3.21.98-6.65,11.96-7.9,29.37-22.41,34.71-.87,8,1.1,15.86,2.01,23.76,4.63-9.63,10.15-20.16,19.62-26.33,2.03-1.6,7.75-4.47,3.67,2.76-4.67,14.01-3.21,33.28-18.43,40.62.04,5.09,1.9,9.86,2.92,14.78-2.02-.63-4.06-1.22-6.09-1.78-1.13-3.96-1.52-8.16-3.11-11.97-6.89-4.1-13.73-8.61-18.78-14.95,6.82-1.36,5.4-11.62,11-15.54,1.56.93,1.9,3.35,4.01,3.35-.78-6.01.15-12.53-2.86-17.98,1.88-.12,4.02-.05,5.17-1.83,6.19-7.81,11.51-16.29,18.3-23.63,2.07-1.78,2.98-4.43,1.77-6.95Z"/>
      <path class="cls-38" d="m505.75,222.12c.45.02,1.35.06,1.79.07,3.79,11.38,15.95,17.76,20.22,28.95-.08,3.19,2.58,4.56,4.72,6.01.99,5.28.45,10.81-.64,16.07,1.94-1.63,3.78-3.4,5.73-5.04,4.06,4.6,2.61,16.15,10.27,16.18-4.64,6.74-12.94,11.36-19.75,16.04-1.88,2.62-.6,8.35-3.38,9.74-1.71-1.63-3.37-.17-4.81,1,.43-3.96,2.23-7.8,1.89-11.81-16.03-7.34-13.18-28.06-19.07-42.12-.51-1.56-1.81-4.11,1.05-3.01,9.87,4.3,15.84,14.29,20.4,23.58,1.03,1.5-.17,5.03,2.61,4.33.68-7.94,2-15.86,2.07-23.83-15.73-5.05-16.16-23.76-23.1-36.16Z"/>
    </g>
    <path class="cls-100" d="m1901.17,223.41c3.56-2.7,7.47,1.49,11.42,1.03,23.8,1.07,47.82,1.19,71.63-.02.47-.08,1.4-.24,1.87-.32,1.83.04,3.69.04,5.56-.06.3.52.9,1.55,1.2,2.07-.02,5.68-.02,11.35.04,17.04.01,2.36-1.03,6.42-4.03,5.99-3.92.66-3.64-5.7-4.36-7.72-1.5-2.57-4.77-2.88-7.36-3.59-2.92-.44-5.48-.72-8.28-.77-3.78-.04-7.31-.11-11.01.09-1.84,23-1.29,49.86-.41,74.26.27,1.66.53,3.35,1.16,4.94.69.77,1.45,1.49,2.29,2.16,1.28,1.15,3.18.58,4.77.55,4.09-.56,8.73,1.52,6.12,6.87-4.27,1.92-9.21,1.11-13.66.92-8.16-.71-16.51-1.69-24.58-.13-5.22,4.15-15.34-2.81-8.38-7.31,6.11,2.2,9.28-2.94,9.03-8.03,1.41-24.68.44-49.48.59-74.19l-.91-.06c-3.48-.11-6.64-.01-10.01-.06-3.58-.03-6.91-.16-10.33.59-5.82-.41-8.43,4.19-9.97,9.15-2.97,2.99-8.78-.83-6.24-4.74.61-1.55.69-3.23.59-4.88l.34-.99c.65-1.2.78-2.59.6-3.92-.32-3.14.97-6.12,2.32-8.87Z"/>
    <path class="cls-54" d="m2060.12,224.35c.74-.07,2.21-.21,2.95-.27,1.46.06,2.95.07,4.47.03,1.73.99,1.26,3.07,1.1,4.74-.55,2.64-.71,5.34-1.02,8.01-.52,3.04-.65,6.13-.87,9.19-.28,3.83-7.76,4.54-6.95-.14-.01-1.56.6-3.48-.55-4.77-1.45-2.11-3.51-3.45-6.11-3.35-3.23-.41-6.14-.75-9.29-.74-2.72-.05-5.38-.03-7.99.08-2.17,7.92-.87,19.47-.87,28.92,7.02.03,14.21.64,21.23-.55,3.24-.2,7.11-6.87,9.65-2.41-.12,3.65.06,7.35-.09,11.01-.04.44-.12,1.32-.15,1.76-.48,3.73-.74,7.48-.81,11.24-.29.52-.88,1.55-1.17,2.07-1.52-.1-3.01-.11-4.47-.06-.33-.55-.98-1.66-1.31-2.21.07-1.29.27-2.72-.52-3.83-.82-1.95-2.48-3.26-4.27-4.22-5.29-.04-14.57-2.87-18.2.26-.02,10.22-.33,20.46.26,30.67.64,2.57,3.09,3.89,5.44,4.63,5.09,1.05,10.4.97,15.58.02,5.9-.32,7.85-6.19,9.08-10.99.88-3.42,7.01-2.78,6.62.67-.17,2.98.02,6.02.03,9.02-.65,4.71-.02,13.22-6.01,13.99-7.06.01-14.03-.05-21.03.01-1.61-.01-3.19-.11-4.73-.29-9.81-.74-19.85-1.71-29.58-.11-4.42,3.16-14.95-1.89-8.71-6.66,6.15.62,10.49-3.1,9.36-9.69.88-24.77,1.43-49.94,0-74.6-.34-1.37-1.45-2.25-2.41-3.13-2.18-.66-4.41-.83-6.67-.52-1.5.34-3.42-.57-3.28-2.25.04-1.2.04-2.39-.02-3.57.26-.29.77-.86,1.03-1.15,20.08-.55,40.24.92,60.28-.81Z"/>
    <path class="cls-93" d="m883.05,232.1c-4.18,1.1-5-6.68-1.12-6.98,14.62-.03,29.24-.02,43.88.01,4.4.84,2.23,8.05-2.16,6.97-1.42.14-4.27.43-5.69.58-.89,1-1.66,2.09-2.36,3.21-1.32,23.4-1.13,47.04-.05,70.46.18,1.7.37,3.44,1.01,5.05,1.47,1.77,3.8,2.6,6.01,3.03,5.45.83,11.17,1.23,16.63.05,3.01-.91,6.99-1.5,7.99-5.04,1.69-3.19,1.29-8.47,5.66-9.28,1.45.53,3.6.84,3,2.94-.02,2.66,0,5.34.04,8.02-.4,5.72-.53,15.74-8.01,16.02-6.7-.03-13.36-.06-20.03-.02-1.68-.08-5.05-.23-6.73-.31-9.81-.64-19.84-1.7-29.58-.09-3.58,1.27-11.71,1.3-10.67-4.54,1.29-4.98,8.58-1.18,10.42-6.18.53-2.07.8-4.23.79-6.48,1.31-23.85,1.17-47.93.17-71.76-.6-2.01-1.13-4.58-3.43-5.22-1.44-.11-4.32-.33-5.77-.44Z"/>
    <path class="cls-7" d="m960.05,232.09c-3.88.88-6.29-6.22-2.13-6.97,14.65-.05,29.3,0,43.96,0,3.73.84.86,9-3.23,7.05-1.48.06-3.71-.81-4.63.72-.59.94-1.08,1.92-1.47,2.95-1.24,8.38-.64,16.89-.7,25.34-3.31,8.43.45,5.02,1.98,3.4,9.45-10.36,19.99-19.95,28.11-31.46-2.7-1.71-6.21-5-2.86-7.99,12.51-.04,25.04-.04,37.57,0,2.91,2.22.6,7.49-2.97,7-1.62-.16-3.33-.3-4.79.52-16.93,6.79-27.15,23.49-40.04,35.55,13.62,17.15,28.88,34.86,47.06,47.84,3.91,4,15.56.97,13.77,8.81-5.99,5.35-16.48,1.22-23.91,1.77-1.43-.15-4.29-.43-5.72-.57-8.99.15-16.08-7.27-21.83-13.28-8.13-9.35-16.74-18.31-24.4-28.07-1.45-1.64-5.18-5.62-1.94,3.33.45,9.07-1.18,18.48.64,27.41,1.25,6.62,10.57.67,12.38,5.89-.08,1.17-.09,2.35-.02,3.53-1.76,4.07-9.23,1.52-12.76,1.95-7.81-.65-15.83-1.6-23.58-.1-3.58,1.27-11.71,1.3-10.67-4.53,1-5.42,9.45-.32,10.26-5.8.36-2.7.74-5.35.98-8.05,1.25-23.77,1.17-47.78.12-71.54-.16-1.08-.61-1.98-1.34-2.72-.53-.36-1.59-1.09-2.12-1.45-1.43-.14-4.29-.41-5.72-.54Z"/>
    <path class="cls-82" d="m430.84,236.64c4.1-2.84,7.55-6.45,11.14-9.88,1.97,21.7.38,43.58.87,65.35.63,10.03-1.74,20.78,2.2,30.35-3.02,5.44-6.23,10.78-9.75,15.91-.03-5.01-4.34-8.95-3-14.14-.67-28.29-.71-56.62-.05-84.91-.42-.92-.89-1.82-1.41-2.68Z"/>
    <path class="cls-84" d="m320.96,228.07c3.27.06,6.5-.03,9.79-.07-3.22,1.93-6.48,1.96-9.79.07Z"/>
    <path class="cls-48" d="m311.84,235.04c4.72.19,9.43.14,14.16.21-4.47,1.98-9.59.66-14.16-.21Z"/>
    <path class="cls-9" d="m213.01,237.44c3.29-4.44,9.87.08,8.13,5.55,2.44,17.16,5.67,34.19,10.48,50.81-1.32,3.25,1.41,6.13,2.06,9.22-2.48,1.47-5.32,1.03-7.86,0-6.83-21.22-13.03-43.12-12.81-65.58Z"/>
    <path class="cls-32" d="m423.57,240.93c2.44-1.4,4.85-2.85,7.27-4.29.52.86.99,1.76,1.41,2.68-.66,28.29-.62,56.62.05,84.91-1.34,5.19,2.97,9.13,3,14.14-2.88,4.07-5.81,8.14-9.12,11.87-1.83-1.99-5.07-3.46-3.24-7.16-.07-34.05-.5-68.14.63-102.15Z"/>
    <path class="cls-64" d="m632.26,237.79c1.06,33.08,1.07,66.47-.14,99.58-.31-33.18-.67-66.44.14-99.58Z"/>
    <path class="cls-68" d="m892.25,237.76c1,23.83,1.14,47.91-.17,71.76-.12-23.9-.79-47.89.17-71.76Z"/>
    <path class="cls-44" d="m381.86,243.22c-1.19,3.14-8.98-.54-5.33-1.51,1.02,1.94,3.54,1.21,5.33,1.51Z"/>
    <path class="cls-3" d="m410.65,245.75c4.38-1.4,8.67-3.07,12.92-4.82-1.13,34.01-.7,68.1-.63,102.15-1.83,3.7,1.41,5.17,3.24,7.16-3.59,3.77-6.71,8.03-10.99,11.06-3.17-7.1-1.09-14.79-2.06-22.22-.57-30.91-.47-61.92.48-92.77l-2.96-.56Z"/>
    <path class="cls-57" d="m267.52,275c2.95-10.93,8.37-21.53,17.01-29.04,1.61,1.48,3.82,2.98,2.88,5.5.51,19.07.75,38.19.26,57.28-1.58.83-3.24,1.48-4.9,2.13-7.85-1.76-15.04-6.94-16.25-15.45.13-4.85.19-9.69.27-14.53l.11-.78c1.64-1.25,1.35-3.44.62-5.11Z"/>
    <path class="cls-58" d="m404.56,247.83c2-.77,4.03-1.48,6.09-2.08l2.96.56c-.95,30.85-1.05,61.86-.48,92.77.97,7.43-1.11,15.12,2.06,22.22-3.19,3.26-6.66,6.22-10.22,9.06-4.91-14.04-.76-29.67-2.11-44.25,1.3-26.02-2.53-52.54,1.7-78.28Z"/>
    <path class="cls-36" d="m361.95,265.02c5.23-5.09,6.98-19.06,15.86-15.79-2.15,46.91-.49,94.03-.74,140.97-4.07,3.08-8.32,5.98-12.93,8.21.41-1.1,1.15-2.12,1.22-3.32-1.19-43.24-.04-86.52-.62-129.77-.69-.07-2.09-.22-2.79-.3Z"/>
    <g>
      <path class="cls-59" d="m135.99,252.2c.59-1.15.67-5.1,2.69-1.83,5.55,6.65,11.73,12.74,17.17,19.48-5.6,3.92-4.18,14.18-11,15.54-7.93-8.65-9.96-21.84-8.86-33.19Z"/>
      <path class="cls-59" d="m177.53,325.37c2.35-13.04,9.43-26.77,21.35-33.36-4.35,16.05.99,36.9-13.78,48.41,1.35,7.78,6.74,15.47,11.66,21.75,5.67,4.65,7.04,12.21,8.88,18.89-1.28.09-2.56.14-3.84.16-10.21-1.32-21.49-3.32-29.91-9.09-4.33-8.54-2.46-20.21-11.09-26.04,8.37,2.52,15.97,7.14,24.14,10.1-3.27-8.16-7.2-17.19-16.16-19.97-7.28-6.59,2.36-16.55-2.94-24.13l.9.22c2.03.56,4.07,1.15,6.09,1.78,2.25,3.46,2.55,7.77,4.7,11.28Z"/>
    </g>
    <path class="cls-24" d="m377.81,249.23l.87.09c2.73.31,5.52.7,8.28.91-1.11,2.5-2.69,4.89-2.01,7.89-.24,40.01,0,80.02-.13,120.03-.29,2.13,1.27,3.73,2.37,5.36-3.29,2.35-6.78,4.41-10.12,6.69.25-46.94-1.41-94.06.74-140.97Z"/>
    <path class="cls-14" d="m378.68,249.32c5.47-.27,10.93-.14,16.42-.07-.34.23-1.02.68-1.36.91-1.7.02-5.08.05-6.78.07-2.76-.21-5.55-.6-8.28-.91Z"/>
    <g>
      <path class="cls-23" d="m537.57,268.18c5.4-6.63,11.31-12.91,17.1-19.14,3.69,11.96.19,25.38-6.83,35.32-7.66-.03-6.21-11.58-10.27-16.18Z"/>
      <path class="cls-23" d="m240.17,418.49c-.13-2.6-2.3-5.55,1.58-6.6,3.98,1.72,7.13,6.05,11.43,6.48,6.08-.62,16.75-.78,16.71,7.7.07.7.21,2.11.27,2.81,6.38,3.13,12.87,6.16,19.64,8.35-1.72-4.01-4.04-7.81-5.03-12.08,4.96-3.32,11.41-2.82,16.86-5.12,6.63,6.58,10.96,15.41,10.44,24.87,4.76,2.14,10.02,2.9,14.93,4.67-5.47,1.32-11.04,2.17-16.56,3.19-1.48.26-2.97.32-4.45.46-9.53,1.45-19.18,2.6-28.83,1.59-9.91-1.23-19.6-4.45-29.62-3.3,10.14-3.61,20.8-6.84,31.52-8.67-6.01-4.7-13.62-8.47-21.19-4.73-16.41,5.02-33.89.04-47.72-9.28-3.32-2.26-7.18-5.3-7.36-9.59,11.98.56,27.24,2.85,37.38-.75Z"/>
      <path class="cls-23" d="m440.73,418.44c3.88-.29,6.91-2.43,9.1-5.52,1.14,1.31,2.16,2.73,3.22,4.12-1.23,2.2-6.16,5.89,2.78,3.09,10.99-.51,22.2,1.07,33.09-.94-3.4,10.36-15.93,15.1-25.79,18.37-12.21,5.49-25.82,1.2-38.17-1.38-3.35,2.81-10.3,3.11-12.05,6.71,9.37,1.29,18.4,4.25,27.25,7.45-16.58,2.13-33.16,5.73-49.94,3.32-7.76-2.11-15.8-2.74-23.68-4.18,3.83-2.75,8.99-2.31,13.05-4.63-.29-8.87,3.52-17.27,9.39-23.75,6.01,1.46,12.53,1.17,18.21,3.63-1.33,4.35-3.77,8.24-5.44,12.43,6.88-1.94,13.38-5.19,19.77-8.34.08-.69.23-2.07.31-2.76.03-8.74,11.89-9.62,17.98-7.43l.92-.19Z"/>
    </g>
    <path class="cls-76" d="m386.96,250.23c1.7-.02,5.08-.05,6.78-.07-2.04,42.96-.51,86.24-.52,129.27-1.95,1.45-3.98,2.78-6.03,4.08-1.1-1.63-2.66-3.23-2.37-5.36.14-40.01-.11-80.02.13-120.03-.68-3,.9-5.39,2.01-7.89Z"/>
    <path class="cls-20" d="m207.99,251.89c5.3,6.37,4.79,15.03,6.52,22.75,1.36,7.26,4.52,14.35,3.57,21.86-5.15-13.8-8.27-29.62-10.09-44.61Z"/>
    <path class="cls-10" d="m361.95,265.02c.7.08,2.1.23,2.79.3.58,43.25-.57,86.53.62,129.77-.07,1.2-.81,2.22-1.22,3.32-5.97,3.42-11.58,7.85-18.28,9.69-5.33-1.45-9.99-4.76-14.87-7.3-.28-.4-.82-1.19-1.1-1.59-1.53-3.28-2.2-6.62.41-9.56,1.72-25.19-.62-50.91.55-76.12-4.92,2.63-4.68-7.66.08-4.86-.85-4.15-.62-8.27,1.73-11.83,11.32-9.07,20.39-20.46,29.29-31.82Z"/>
    <path class="cls-67" d="m266.9,280.11c-.42-1.72-.47-3.62.62-5.11.73,1.67,1.02,3.86-.62,5.11Z"/>
    <path class="cls-85" d="m2064.82,287.1c.07-3.76.33-7.51.81-11.24.74,4.69.47,8.43-.81,11.24Z"/>
    <path class="cls-37" d="m251.56,298.39c-1.7-5.64-.64-11.81.07-17.52.1,5.83.09,11.67-.07,17.52Z"/>
    <path class="cls-42" d="m266.52,295.42c-1.54-4.7-.48-9.79.27-14.53-.08,4.84-.14,9.68-.27,14.53Z"/>
    <g>
      <path class="cls-95" d="m135.9,290.95c9.44,7.35,21.51,12.64,29.94,21.14,5.3,7.58-4.34,17.54,2.94,24.13-18.49-6.64-31.66-25.89-32.88-45.27Z"/>
      <path class="cls-95" d="m526.18,312.02c8.92-7.09,19.46-14.98,29.65-21.07-.78,18.61-13.87,37.11-30.81,44.29,3.44-7.54-.9-15.49,1.16-23.22Z"/>
      <path class="cls-95" d="m279.91,407.11c1.52-1.88-2.98-12.48,1.54-10.63,5.79,8.57,14.23,15.32,20.18,23.55-5.45,2.3-11.9,1.8-16.86,5.12-3.74-4.84-4.23-11.99-4.86-18.04Z"/>
      <path class="cls-95" d="m236.73,452.3c3.66.76,7.2-1.58,10.81-.79,10.02-1.15,19.71,2.07,29.62,3.3,9.65,1.01,19.3-.14,28.83-1.59-13.92,9.57-31.83,14.63-48.53,10.41-7.12-2.34-18.22-3.06-20.73-11.33Z"/>
    </g>
    <path class="cls-53" d="m492.83,292.05c12.05,6.43,18.83,20.23,21.33,33.22,2.76-4.31,3.02-9.81,5.74-14.13,1.44-1.17,3.1-2.63,4.81-1,.36.47,1.1,1.41,1.47,1.88-2.06,7.73,2.28,15.68-1.16,23.22-3.41,3.52-10.71,3.24-12.4,8.7-1.03,4.52-4.79,7.83-5.83,12.25,8.21-2.84,15.6-7.99,24.11-10.12-8.91,5.75-5.76,17.77-11.42,25.81-6.39,5.43-15.37,7.12-23.58,8.25-3.06.15-6.02.5-9.03.73.57-7.6,2.19-17.87,10.01-19.69,1.92-7.24,8.1-12.74,9.96-19.92-14.4-11.77-9.85-32.9-14.01-49.2Z"/>
    <path class="cls-9" d="m233.68,303.02c-.65-3.09-3.38-5.97-2.06-9.22,2.52,6.66,4.8,13.53,8.72,19.54.1.81.2,1.63.31,2.45-1.52,4.07-3.96,6.59-8.08,3.57-2.8-5.2-4.78-10.79-6.75-16.34,2.54,1.03,5.38,1.47,7.86,0Z"/>
    <path class="cls-8" d="m307.63,312.86c8.86-4.48,17.11-10.04,25.03-16.02-2.35,3.56-2.58,7.68-1.73,11.83-4.76-2.8-5,7.49-.08,4.86-1.17,25.21,1.17,50.93-.55,76.12-2.61,2.94-1.94,6.28-.41,9.56-6.59-2.63-12.42-6.7-18.08-10.88-1.08-2.25-3.64-3.86-3.56-6.54-.19-22.97-.41-45.96-.62-68.93Z"/>
    <path class="cls-30" d="m255.91,335.02c3.59-8.68.74-18.47.73-27.25,6,5.85,13.93,8.47,22.09,9.44l.19.93c-2.77-.04-5.49-.66-8.24-.95,10.27,12.25-.22,29.87,5.23,43.97-1.01-.72-2.02-1.43-3.04-2.12-5.76-7.92-11.74-15.73-16.96-24.02Z"/>
    <path class="cls-9" d="m232.57,319.36c4.12,3.02,6.56.5,8.08-3.57,2.15,6.17,6.14,11.41,9.33,17.06-2.79,1.94-6.03,2.66-9.29,1.49-3.07-4.79-5.8-9.78-8.12-14.98Z"/>
    <path class="cls-49" d="m270.68,317.19c2.75.29,5.47.91,8.24.95,3.61.06,7.25.04,10.86,0,.18,18.39-.13,36.84.85,55.2-5.16-3.75-9.95-7.95-14.72-12.17-5.45-14.1,5.04-31.72-5.23-43.97Z"/>
    <path class="cls-99" d="m278.73,317.21c4.13.03,8.27.08,12.42.15-.34.19-1.03.57-1.37.77-3.61.05-7.25.07-10.86,0l-.19-.93Z"/>
    <g>
      <path class="cls-35" d="m201.16,336.74c2.84-5.54,5.1-13.57,11.58-15.73-3.26,15.82,6.5,34.82-1.92,49.27-3.72-11.04-7.44-22.58-9.66-33.54Z"/>
      <path class="cls-35" d="m479.13,320.91c7.48,5.06,11.65,14.59,13.73,23.24-1.21-.57-3.38-3.47-3.52-.65-.59,10.07-5.34,18.97-7.71,28.62-9.28-15.59.07-34.5-2.5-51.21Z"/>
      <path class="cls-35" d="m225.71,350.99c3.26-3.97,3.02,5.73,4.32,7.06,2.85,14.67,16.22,32.34,4.92,46.14-.36-4.39-4.45-7.02-6.92-10.27-1.78-2.71-4.81,2.86-6.29-.15-1.64-14.04-3.27-29.64,3.97-42.78Z"/>
    </g>
    <path class="cls-97" d="m1270.54,326.73c6.08-1.42,12.42-.54,18.58.12-6.21.2-12.44.67-18.58-.12Z"/>
    <path class="cls-69" d="m1760.58,326.81c7.68-1.75,15.72-.55,23.51.06-7.86.25-15.7.33-23.51-.06Z"/>
    <path class="cls-9" d="m240.69,334.34c3.26,1.17,6.5.45,9.29-1.49,5.99,9.48,12.92,18.34,20.75,26.37,8.78,8.72,18.65,16.15,28.37,23.7-3.74-.72-10.61-1.54-9.47,4.28-8.03-5.81-15.82-12.13-21.54-20.32-9.99-10.09-20.85-19.65-27.4-32.54Z"/>
    <path class="cls-73" d="m201.16,336.74c2.22,10.96,5.94,22.5,9.66,33.54-9.17,8.77,6.08,15.95,10.92,23.49,1.48,3.01,4.51-2.56,6.29.15,2.47,3.25,6.56,5.88,6.92,10.27,0,3.99,5.63,4.53,6.8,7.7-3.88,1.05-1.71,4-1.58,6.6-4.97-2.85-8.75-7.44-14.02-9.78.19-5.24-4.45-7.93-7.86-11.05-2.59-3.76-4.31-10.48-10.27-8.05-1.52-3.19-3.87-5.8-6.22-8.39,1.28-.02,2.56-.07,3.84-.16-1.84-6.68-3.21-14.24-8.88-18.89-.29-8.59.42-17.67,4.4-25.43Z"/>
    <g>
      <path class="cls-74" d="m147.94,338.91c4.5,1.91,9,4.2,12.86,7.18,8.63,5.83,6.76,17.5,11.09,26.04-11.19-7.96-21.96-19.05-23.95-33.22Z"/>
      <path class="cls-74" d="m249.09,377.18c.39.02,1.16.08,1.54.1,4.92,13.29,16.71,23.18,19.79,37.22-.53,2.97,2.44,10.4-.53,11.57.04-8.48-10.63-8.32-16.71-7.7-5.57-12.49-8.1-27.82-4.09-41.19Z"/>
      <path class="cls-74" d="m439.82,380.1c.74-1.27.94-3.43,2.93-2.97,3.46,11.71,2.09,24.48-2.06,35.87-.5,1.84-2.41,3.79-.88,5.63-6.09-2.19-17.95-1.31-17.98,7.43-5.91-16.44,11.61-31.13,17.99-45.96Z"/>
    </g>
    <g>
      <path class="cls-78" d="m530.9,346.07c3.99-2.74,8.58-4.9,12.94-7.08-2.42,13.72-12.54,26.35-24.36,32.89,5.66-8.04,2.51-20.06,11.42-25.81Z"/>
      <path class="cls-78" d="m388.98,421.1c6.83-8.57,15.12-16.38,21.95-24.87,2.97,7.44.93,21.38-3.74,28.5-5.68-2.46-12.2-2.17-18.21-3.63Z"/>
    </g>
    <path class="cls-22" d="m489.34,343.5c.14-2.82,2.31.08,3.52.65,2.64,5.48,1.66,11.9,2.03,17.82.49-.2,1.49-.6,1.99-.8-7.82,1.82-9.44,12.09-10.01,19.69,3.01-.23,5.97-.58,9.03-.73-5.71-.24-9.92,5.07-13.22,9.85-6.05,1.1-8.72,8.04-13.29,11.69-1.37,2.17-5.41,4.2-3.77,7.17-5,1.37-7.91,6.61-12.57,8.2-1.06-1.39-2.08-2.81-3.22-4.12-2.19,3.09-5.22,5.23-9.1,5.52,4.12-5.4,12.39-7.3,15.85-13.32.89-5.01,4.95-8.42,8.49-11.73,1.61.59,3.71,4.04,4.5,1.01,4.73-5.75,10.54-10.71,14.69-16.94,1.75-2.12-1.76-3.6-2.63-5.34,2.37-9.65,7.12-18.55,7.71-28.62Z"/>
    <path class="cls-60" d="m464.04,350.05c10.2,11.62,7.67,30.4,5.53,44.35-.79,3.03-2.89-.42-4.5-1.01-3.54,3.31-7.6,6.72-8.49,11.73-10.8-17.68,3.98-37.29,7.46-55.07Z"/>
    <g>
      <path class="cls-25" d="m809.96,371.19c10.43-18.21,38.44-21.95,53.76-7.84-.11,3.75-5.1,5.56-7.85,7.79-12.06-12.13-34.13-4.92-37.26,11.71-.63,3.72-1.57,7.92-.04,11.58,2.23,17.3,26.43,24.62,37.57,10.99,2.88,2.22,8.7,3.57,8.6,7.47-5.14,4.09-10.93,9.12-17.87,9.25-4.71-.04-9.37-.02-14.05-.02-23.01-2.77-34.16-31.84-22.86-50.93Z"/>
      <path class="cls-25" d="m1147.25,378.73c-5.86-22.87,29.33-31.57,41.64-16.62-2.1,2.76-4.77,6.04-7.81,7.72-5.08-6.93-16.88-7.49-22.02-.4-3.87,12.83,12.75,12.72,20.39,17.19,4.5,2.15,9.27,6.13,9.44,11.46-.11,2.99,0,6.06-.02,9.08-.68,7.92-8.5,13.96-15.97,14.97-4.4-.02-8.73,0-13.07-.01-5.97-.6-11.55-4.02-15.76-8.2,1.71-3.03,4.93-5.65,7.78-7.94,5.21,4.97,12.69,9.46,19.94,6.06,7.13-1.46,8.68-12.52,1.76-15.57-9.06-5.17-23.77-5.62-26.3-17.74Z"/>
    </g>
    <g>
      <path class="cls-65" d="m911.83,383.1c.54-22.32,28.11-33.62,47.13-26.1,10.41,3.54,19.54,12.92,20.92,24.09-.04,5-.01,10.03-.01,15.05-1.8,13.21-13.67,24.86-27,26-4.71-.04-9.36-.05-14.04,0-13.67-1.08-25.92-13.35-27-27.01.01-4.01.01-8.02,0-12.02Zm29.43-17.53c-18.12,2.51-23.49,29.24-10.71,40.86,7.93,8.14,22.67,8.11,30.63-.02,16.2-14.31,2.71-47.06-19.92-40.84Z"/>
      <path class="cls-65" d="m1543.82,379.08c4.86-24.27,41.67-33.02,56.99-14.13-2.99,1.33-6.34,8.03-9.73,4.92-12.37-11.07-32.32-2.38-35.46,12.98-.7,4.06-1.7,8.59-.06,12.57,2.95,15.28,23.15,22.63,34.99,12.34,3.61-5.16,7.52,2.14,11.27,3.43-2.99,6.48-11.18,9.77-17.94,10.94-4.74-.02-9.38-.01-14.06-.01-19.56-2.5-31.87-24.54-26-43.04Z"/>
      <path class="cls-65" d="m1814.01,376.24c6.95-22.47,38.54-27.88,55.58-13.83,21.62,16.37,11.78,56.85-15.71,59.71-5.08-.01-10.03,0-15.05,0-20.68-2.62-32.49-27.22-24.82-45.88Zm27.22-10.76c-18.24,3.93-22.46,30.77-8.65,41.92,10.02,9.63,29.92,5.31,34.25-8.29,8.76-16.62-6.8-38.91-25.6-33.63Z"/>
    </g>
    <g>
      <path class="cls-41" d="m1034.95,357.12c5.28-.18,10.64-.19,15.88.85,9.82,15.17,18.75,31.6,29.11,46.02l.86.21c.32-15.69-.23-31.38.15-47.07h9.8c.33,21.3-.02,42.63.1,63.94-4.63,0-9.23.4-13.79-.11-10.04-15.54-19.5-31.5-29.24-47.24-.6-.98-1.21-1.94-1.83-2.88-.32,16.74-.04,33.48-.14,50.23-3.72.07-7.31.21-10.98-.05.06-21.3-.17-42.6.08-63.9Z"/>
      <path class="cls-41" d="m1437.95,357.13h9.8c.74,14.41-.9,28.92.8,43.28,1.29,15.51,26.76,16.38,28.68,1.04,1.98-14.6-.26-29.59.69-44.31h10.83c.41,14.65-.11,29.32.14,43.98-.26,10.26-9.15,19.19-19.02,20.98-4.4.01-8.72.02-13.05.03-9.26-1.52-18.27-9.2-18.98-19,.11-15.33-.17-30.67.11-46Z"/>
    </g>
    <g>
      <path class="cls-94" d="m1235.93,357.12c16.96-.02,33.93-.01,50.9,0,0,2.96.19,6-.04,8.98-6.65.11-13.26-.33-19.86.14-.25,18.28.03,36.56-.09,54.85-2.73,0-8.19,0-10.93,0-.23-17.99.1-35.99-.08-53.97-4.97-2.3-13.39-.59-19.95-1.01-.21-3.03-.15-5.99.05-8.98Z"/>
      <path class="cls-94" d="m1746.95,357.2c2.72-.03,8.15-.08,10.87-.11.03,21.33.14,42.67-.04,64-2.73,0-8.18,0-10.91,0,.05-21.3-.18-42.59.08-63.88Z"/>
    </g>
    <path class="cls-28" d="m1337.92,357.18c8.98-.24,17.97-.04,26.98-.09,7.71.14,16.57,4.73,17.97,12.99-.09,3.32.04,6.71-.01,10.05-.87,7.1-7.65,10.7-13.9,12.26,5.43,9.69,11.73,18.91,16.93,28.73-4.68-.06-9.28.28-13.9-.13-5.03-8.79-9.36-17.94-14.55-26.63-3.02-.23-5.66-.39-8.58-.24-2.46,7.16-.34,18.28-1.01,26.95-3.42.08-6.64.21-9.98-.04.04-21.29-.15-42.57.05-63.85Zm11.02,8.95c-.34,5.97-.11,11.96-.04,17.95,7.52-.46,20.14,2.82,22.99-6.96,2.22-12.65-15.37-11.48-22.95-10.99Z"/>
    <path class="cls-91" d="m1645.95,357.24c16.61-.46,33.25.05,49.88-.12-.03,2.96.19,6-.04,8.98-6.66.11-13.26-.33-19.86.14-.25,18.27.03,36.55-.09,54.83-3.75.07-7.29.21-10.97-.05-.21-18.28.29-36.57-.13-54.84-6.34-.19-12.61-.07-18.9-.09.08-2.93-.22-5.96.11-8.85Z"/>
    <path class="cls-16" d="m1935.93,357.24c4.92-.42,9.8-.1,14.81-.14,10.52,15.05,19.5,31.97,29.97,47.3.43-15.77-.11-31.55.21-47.31,2.71.02,8.12.07,10.83.09.33,21.29-.02,42.59.1,63.88-4.7.04-9.28.34-13.89-.05-10.89-16.01-19.82-33.39-30.96-49.18-.48,16.41.15,32.84-.23,49.25h-10.9c.04-21.28-.16-42.57.06-63.84Z"/>
    <path class="cls-56" d="m270.73,359.22c.54-.04,1.61-.13,2.14-.18,1.02.69,2.03,1.4,3.04,2.12,4.77,4.22,9.56,8.42,14.72,12.17,4.76,3.65,9.67,7.13,14.3,10.98-2.13.99-4.04-.38-5.83-1.39-9.72-7.55-19.59-14.98-28.37-23.7Z"/>
    <path class="cls-9" d="m407.69,372.96c3.8-1.4,8.97-.87,6.4,4.34-4.18,4.09-9.04,7.41-13.7,10.92-1.04-2.96-3.54-4.71-6.7-4.45,4.62-3.66,9.56-6.91,14-10.81Z"/>
    <path class="cls-9" d="m289.63,387.2c-1.14-5.82,5.73-5,9.47-4.28,1.79,1.01,3.7,2.38,5.83,1.39,2.21,1.46,4.51,2.8,6.88,4.02,5.66,4.18,11.49,8.25,18.08,10.88.28.4.82,1.19,1.1,1.59-.79.74-1.57,1.5-2.34,2.27-3.59-2.06-7.21-4.08-10.74-6.26-2.91-4.61-16.57-11.18-16.49-1.44-3.9-2.78-7.88-5.44-11.79-8.17Z"/>
    <path class="cls-9" d="m381.52,391.99c3.79-3.12,8.19-5.36,12.17-8.22,3.16-.26,5.66,1.49,6.7,4.45-4.6,3.55-9.31,6.95-14.16,10.14,1.89-3.59-2.16-5.03-4.71-6.37Z"/>
    <path class="cls-79" d="m168.78,385.17c2.1,1.66,10.81-1.48,10.92,1.86-.49.08-1.47.25-1.95.34,7.1,4.93,8.58,14.1,16.17,18.73-9.99-2.94-22.39-10.27-25.14-20.93Z"/>
    <path class="cls-11" d="m510.91,387.08c1.02-3.18,9.4.19,12.05-1.87-4.17,11-16.46,18.27-27.22,21.85,8.28-4.68,9.72-15.46,18.31-19.74-.78-.06-2.36-.18-3.14-.24Z"/>
    <path class="cls-9" d="m301.42,395.37c-.08-9.74,13.58-3.17,16.49,1.44-3.07.05-5.17,2.45-6.26,5.08-3.41-2.18-6.86-4.31-10.23-6.52Z"/>
    <path class="cls-9" d="m367.52,401.04c4.59-3.12,9.4-5.92,14-9.05,2.55,1.34,6.6,2.78,4.71,6.37-4.62,3.08-9.32,6.02-14.05,8.92,1.99-3.58-2.39-4.6-4.66-6.24Z"/>
    <path class="cls-9" d="m311.65,401.89c1.09-2.63,3.19-5.03,6.26-5.08,3.53,2.18,7.15,4.2,10.74,6.26l1.32.84c-2.48,1.31-5.45,2.33-6.55,5.19-3.93-2.39-7.9-4.74-11.77-7.21Z"/>
    <path class="cls-9" d="m346.65,412.66c7.14-3.5,13.96-7.66,20.87-11.62,2.27,1.64,6.65,2.66,4.66,6.24-8.79,4.88-16.9,11.39-26.33,14.86-7.94-3.1-14.91-8.87-22.43-13.04,1.1-2.86,4.07-3.88,6.55-5.19,5.56,2.86,10.82,6.72,16.68,8.75Z"/>
    <path class="cls-4" d="m327,449.57c5.12.78,10.1,2.33,15.24,3.12,8.34,2.09,16.09-3.76,24.3-3.21,7.88,1.44,15.92,2.07,23.68,4.18,16.78,2.41,33.36-1.19,49.94-3.32,4.54-.06,8.91,1.77,13.46,2.02,2.78,1.28.18,4.25-1.81,4.68-18.29,10.16-41.74,10.84-59.95.07-7.82-7.1-17.93-1.48-26.22,1.74-2.33,2.88-7.25,3.83-7.03,8.17-8.41-3.31-17.11-3.45-25.41.21,1.75-4.48-4.65-5.73-7.13-8.36-4.72-2.92-11.37-2.68-15.63-6.11,5.52-1.02,11.09-1.87,16.56-3.19Z"/>
    <g>
      <path class="cls-27" d="m253.98,494.27c19.74-18.72,46.65-27.47,72.09-35.4,2.48,2.63,8.88,3.88,7.13,8.36-17.86,6.65-38.65,12.47-50.66,28.57-8.92.08-23.69,10.79-28.56-1.53Z"/>
      <path class="cls-27" d="m358.61,467.02c-.22-4.34,4.7-5.29,7.03-8.17,25.63,7.94,53.27,16.59,72.25,36.28-4.89,7.97-15.4,4.66-22.43,1.53-6.57,1.78-8.56-4.34-12.3-7.86-12.79-10.8-29.79-15.83-44.55-21.78Z"/>
    </g>
  </g>
</svg>